<svg width="92" height="16" viewBox="0 0 92 16" fill="none" xmlns="http://www.w3.org/2000/svg">
<g clip-path="url(#clip0_1838_2590)">
<path fill-rule="evenodd" clip-rule="evenodd" d="M90.3912 12.9219C89.6164 12.9219 88.9888 13.5495 88.9888 14.3145C88.9888 15.0794 89.6164 15.7168 90.3912 15.7168C91.1659 15.7168 91.7837 15.0892 91.7837 14.3145C91.7837 13.5397 91.161 12.9219 90.3912 12.9219ZM90.3912 15.5501C89.7096 15.5501 89.1604 15.0009 89.1604 14.3145C89.1604 13.628 89.7096 13.0886 90.3912 13.0886C91.0727 13.0886 91.617 13.6378 91.617 14.3145C91.617 14.9911 91.0678 15.5501 90.3912 15.5501Z" fill="black" fill-opacity="0.48"/>
<path fill-rule="evenodd" clip-rule="evenodd" d="M91.1122 13.948C91.1122 13.8157 91.0533 13.6784 90.9356 13.6097C90.818 13.5411 90.6856 13.5312 90.5532 13.5312H89.8716V15.0955H90.0628V14.3746H90.4159L90.8621 15.0955H91.0876L90.6169 14.3746C90.8964 14.3697 91.1122 14.2521 91.1122 13.948ZM90.357 14.2226H90.0628V13.6685H90.509C90.7052 13.6685 90.916 13.698 90.916 13.9382C90.916 14.257 90.5777 14.2177 90.357 14.2177V14.2226Z" fill="black" fill-opacity="0.48"/>
<path fill-rule="evenodd" clip-rule="evenodd" d="M82.1978 6.38873L85.0565 3.33877C85.2232 3.11322 85.3066 2.9563 85.3066 2.82391C85.3066 2.59835 85.1154 2.51009 84.5073 2.51009H83.7865V0.578125H91.5928V2.50519H90.568C89.3814 2.50519 89.1607 2.68661 87.5082 4.76568L82.9872 9.64953V12.6308C82.9872 13.3909 83.3746 13.6606 84.473 13.6606H86.1794V15.519H75.2447V13.6606H76.9511C78.0544 13.6606 78.4368 13.3909 78.4368 12.6308V9.64953L73.1117 3.75557C72.229 2.72584 72.3516 2.50028 69.8999 2.50028V0.578125H79.7902V2.50519H79.0841C78.3682 2.50519 78.0642 2.63758 78.0642 2.90727C78.0642 3.13283 78.2848 3.30935 78.4221 3.49078L81.119 6.42796C81.4378 6.76139 81.83 6.80552 82.1929 6.38873H82.1978Z" fill="black" fill-opacity="0.48"/>
<path fill-rule="evenodd" clip-rule="evenodd" d="M15.8439 0.580107H18.2269V5.95921H16.0253C15.8291 4.88535 15.1574 4.46365 14.5444 3.89975C13.4363 2.88474 11.0434 2.03644 9.02314 2.03644C6.4194 2.03644 4.22756 2.84551 4.22756 4.03215C4.22756 7.32727 19.1047 4.70392 19.1047 10.9313C19.1047 14.1823 15.9174 15.9966 10.1951 15.9966C8.21407 15.9966 5.21315 15.3837 3.4479 14.4422C2.89381 14.1235 2.65845 14.7462 2.55547 15.5259H0.108646V9.97024H2.32011C2.80555 11.3824 3.48223 11.6717 4.10007 12.2356C5.17392 13.2212 7.72863 13.9371 10.0676 13.9175C13.5981 13.8832 14.8141 13.1134 14.8141 11.9905C14.8141 10.8676 13.6128 10.6028 9.74395 9.99476L6.45863 9.45538C2.74671 8.89148 0.0498047 8.06279 0.0498047 5.106C0.0498047 2.14922 3.46261 0.109375 8.86133 0.109375C11.1365 0.109375 13.0391 0.41339 14.8681 1.44802C15.3731 1.77655 15.8488 1.81578 15.8439 0.580107Z" fill="black" fill-opacity="0.48"/>
<path fill-rule="evenodd" clip-rule="evenodd" d="M62.3976 9.58529L62.4466 3.60797C62.4466 2.82342 62.0396 2.55373 60.8726 2.55373H59.5045V0.695312H68.218V2.55373H67.0804C65.9134 2.55373 65.5064 2.82342 65.5064 3.60797V15.6411L62.0936 15.6166L51.051 5.15746V12.7529C51.051 13.513 51.458 13.8072 52.625 13.8072H54.1401V15.646H45.0933V13.8072H46.5937C47.7607 13.8072 48.1677 13.5179 48.1677 12.7529V3.60797C48.1677 2.82342 47.7607 2.55373 46.5937 2.55373H45.0933V0.695312H52.9192L62.4025 9.58529H62.3976Z" fill="black" fill-opacity="0.48"/>
<path fill-rule="evenodd" clip-rule="evenodd" d="M33.2111 0.00490346C26.2678 0.00490346 21.9185 3.07447 21.9185 8.00245C21.9185 12.9304 26.2041 15.8872 33.0003 15.8872C40.2133 15.8872 44.4106 12.8863 44.4106 7.75238C44.4106 3.13822 39.8798 0 33.2111 0V0.00490346ZM33.0542 13.9405C29.2099 13.9405 26.9984 11.7242 26.9984 7.88967C26.9984 4.05516 29.3031 1.93196 33.2455 1.93196C37.1878 1.93196 39.2326 4.19736 39.2326 8.04658C39.2326 11.8958 36.9917 13.9405 33.0493 13.9405H33.0542Z" fill="black" fill-opacity="0.48"/>
</g>
<defs>
<clipPath id="clip0_1838_2590">
<rect width="91.7389" height="16" fill="white" transform="translate(0.0498047)"/>
</clipPath>
</defs>
</svg>
