<svg width="189" height="26" viewBox="0 0 189 26" fill="none" xmlns="http://www.w3.org/2000/svg">
<path fill-rule="evenodd" clip-rule="evenodd" d="M41.76 13.0611C41.76 14.874 40.7652 16.0478 38.7607 16.0478C36.7562 16.0478 35.7464 14.874 35.7464 13.0611V7.80078H32.7178V13.2986C32.7178 16.4637 34.8855 18.544 38.7607 18.544C42.6359 18.544 44.7887 16.4637 44.7887 13.2986V7.80078H41.76V13.0611Z" fill="black"/>
<path fill-rule="evenodd" clip-rule="evenodd" d="M56.1709 14.1602L50.009 7.80078H46.8022V18.2017H49.7269V11.3667L56.4382 18.2017H59.0955V7.80078H56.1709V14.1602Z" fill="black"/>
<path fill-rule="evenodd" clip-rule="evenodd" d="M73.2661 11.3523C73.2661 8.97466 71.2024 7.80078 68.5444 7.80078H61.2544V18.2023H64.2687V14.9182H67.3272L70.0743 18.2023H73.5931L70.5346 14.6657C72.1673 14.1907 73.2661 13.091 73.2661 11.3523ZM68.322 12.7195H64.2537V10.1043H68.322C69.4059 10.1043 70.1926 10.4016 70.1926 11.4116C70.1926 12.4215 69.4059 12.7195 68.322 12.7195Z" fill="black"/>
<path fill-rule="evenodd" clip-rule="evenodd" d="M77.856 14.0417H84.4041V11.8274H77.856V10.1186H85.7994V7.80078H74.8716V18.2017H85.9626V15.8839H77.856V14.0417Z" fill="black"/>
<path fill-rule="evenodd" clip-rule="evenodd" d="M92.0069 7.80078L86.6323 18.2023H89.8098L90.7897 16.2112H96.4912L97.4711 18.2023H100.693L95.3183 7.80078H92.0069ZM91.8287 14.0561L93.6402 10.3711L95.4367 14.0561H91.8287Z" fill="black"/>
<path fill-rule="evenodd" clip-rule="evenodd" d="M104.658 7.80078H101.629V18.2017H111.651V15.7654H104.658V7.80078Z" fill="black"/>
<path fill-rule="evenodd" clip-rule="evenodd" d="M119.98 14.0417H126.528V11.8274H119.98V10.1186H127.923V7.80078H116.996V18.2017H128.087V15.8839H119.98V14.0417Z" fill="black"/>
<path fill-rule="evenodd" clip-rule="evenodd" d="M139.123 14.1602L132.961 7.80078H129.754V18.2017H132.679V11.3667L139.39 18.2017H142.048V7.80078H139.123V14.1602Z" fill="black"/>
<path fill-rule="evenodd" clip-rule="evenodd" d="M150.204 14.307H153.649V15.2434C152.921 15.9123 151.912 16.1648 150.635 16.1648C148.111 16.1648 146.685 15.0501 146.685 12.9997C146.685 10.9643 148.066 9.84966 150.59 9.84966C151.986 9.84966 152.921 10.2062 153.812 11.0086L156.024 9.374C154.94 8.36347 153.085 7.45703 150.516 7.45703C146.254 7.45703 143.612 9.47811 143.612 12.9997C143.612 16.5214 146.255 18.5425 150.516 18.5425C153.292 18.5425 155.341 17.6211 156.455 16.2396V12.1831H150.204V14.307H150.204Z" fill="black"/>
<path d="M161.268 7.80078H158.239V18.2023H161.268V7.80078Z" fill="black"/>
<path fill-rule="evenodd" clip-rule="evenodd" d="M172.764 14.1602L166.603 7.80078H163.396V18.2017H166.321V11.3667L173.031 18.2017H175.689V7.80078H172.764V14.1602Z" fill="black"/>
<path fill-rule="evenodd" clip-rule="evenodd" d="M180.832 15.8839V14.0417H187.38V11.8274H180.832V10.1186H188.775V7.80078H177.847V18.2017H188.938V15.8839H180.832Z" fill="black"/>
<path fill-rule="evenodd" clip-rule="evenodd" d="M13.2354 0C6.06135 0 0.245605 5.82032 0.245605 13C0.245605 20.1797 6.06135 26 13.2354 26C20.4094 26 26.2252 20.1797 26.2252 13C26.2252 5.82032 20.4094 0 13.2354 0ZM16.5582 20.2275L15.283 18.7922L13.1308 20.9575C11.9064 20.9413 10.7018 20.6416 9.6119 20.0822C8.52204 19.5227 7.57627 18.7186 6.8487 17.7326C7.07707 17.8038 7.31322 17.8487 7.55235 17.8654C7.90508 17.872 8.2865 17.7422 8.2865 17.1499V11.3062C8.29128 11.156 8.26139 11.0064 8.19861 10.87C8.13584 10.7336 8.04198 10.614 7.92421 10.52C7.80703 10.4261 7.66893 10.3615 7.52246 10.3304C7.37539 10.2992 7.22354 10.3034 7.07827 10.3411C6.08168 10.5709 5.28596 13.0592 5.28596 13.0592C5.2746 11.9105 5.51373 10.7725 5.98602 9.72547C6.45831 8.67843 7.153 7.74687 8.02166 6.9954C9.16472 6.0058 10.5648 5.35963 12.0588 5.13167C10.9708 5.75212 10.3592 6.76385 10.3592 7.61285C10.3592 8.97938 11.1818 8.81365 11.4251 8.61262V16.4989C11.4664 16.5976 11.5208 16.691 11.586 16.7765C11.6948 16.9273 11.8376 17.0493 12.0032 17.1331C12.1688 17.2169 12.3518 17.2599 12.5377 17.2587C13.3609 17.2587 14.4293 16.3182 14.4293 16.3182V9.93607C14.4293 9.28691 13.9402 8.50193 13.45 8.2327C13.45 8.2327 14.3569 8.07175 15.0564 8.60783C15.1879 8.44689 15.3272 8.29372 15.4749 8.14714C17.1076 6.54368 18.6458 6.08717 19.9264 5.85862C19.9264 5.85862 17.5972 7.69063 17.5972 10.1485C17.5972 11.9763 17.6444 16.4337 17.6444 16.4337C18.5089 17.2689 19.7936 16.0621 20.9552 14.8721C20.7304 15.9532 19.7345 18.7264 16.5582 20.2275Z" fill="black"/>
</svg>
