<svg width="500" height="500" viewBox="0 0 500 500" fill="none" xmlns="http://www.w3.org/2000/svg">
<path fill-rule="evenodd" clip-rule="evenodd" d="M250 375C319.035 375 375 319.035 375 250C375 180.964 319.035 125 250 125C180.964 125 125 180.964 125 250C125 319.035 180.964 375 250 375ZM250 333.333C296.023 333.333 333.333 296.023 333.333 250C333.333 203.976 296.023 166.667 250 166.667C203.976 166.667 166.667 203.976 166.667 250C166.667 296.023 203.976 333.333 250 333.333Z" fill="#707070"/>
<path d="M375 104.167C363.494 104.167 354.167 113.494 354.167 125C354.167 136.506 363.494 145.834 375 145.834C386.507 145.834 395.834 136.506 395.834 125C395.834 113.494 386.507 104.167 375 104.167Z" fill="#707070"/>
<path fill-rule="evenodd" clip-rule="evenodd" d="M34.4577 89.0847C20.8335 115.824 20.8335 150.827 20.8335 220.833V279.167C20.8335 349.173 20.8335 384.177 34.4577 410.915C46.4418 434.436 65.5643 453.558 89.0847 465.542C115.824 479.167 150.827 479.167 220.833 479.167H279.167C349.173 479.167 384.177 479.167 410.915 465.542C434.436 453.558 453.558 434.436 465.542 410.915C479.167 384.177 479.167 349.173 479.167 279.167V220.833C479.167 150.827 479.167 115.824 465.542 89.0847C453.558 65.5643 434.436 46.4418 410.915 34.4577C384.177 20.8335 349.173 20.8335 279.167 20.8335H220.833C150.827 20.8335 115.824 20.8335 89.0847 34.4577C65.5643 46.4418 46.4418 65.5643 34.4577 89.0847ZM279.167 62.5002H220.833C185.143 62.5002 160.88 62.5327 142.127 64.0647C123.859 65.5572 114.518 68.2625 108.001 71.5829C92.3208 79.5725 79.5725 92.3208 71.5829 108.001C68.2625 114.518 65.5572 123.859 64.0647 142.127C62.5327 160.88 62.5002 185.143 62.5002 220.833V279.167C62.5002 314.858 62.5327 339.119 64.0647 357.873C65.5572 376.142 68.2625 385.483 71.5829 392C79.5725 407.679 92.3208 420.427 108.001 428.417C114.518 431.738 123.859 434.444 142.127 435.936C160.88 437.467 185.143 437.5 220.833 437.5H279.167C314.858 437.5 339.119 437.467 357.873 435.936C376.142 434.444 385.483 431.738 392 428.417C407.679 420.427 420.427 407.679 428.417 392C431.738 385.483 434.444 376.142 435.936 357.873C437.467 339.119 437.5 314.858 437.5 279.167V220.833C437.5 185.143 437.467 160.88 435.936 142.127C434.444 123.859 431.738 114.518 428.417 108.001C420.427 92.3208 407.679 79.5725 392 71.5829C385.483 68.2625 376.142 65.5572 357.873 64.0647C339.119 62.5327 314.858 62.5002 279.167 62.5002Z" fill="#707070"/>
</svg>
