<svg width="500" height="500" viewBox="0 0 500 500" fill="none" xmlns="http://www.w3.org/2000/svg">
<path d="M442.654 21.0411H60.2436C55.3147 20.8102 50.3883 21.5536 45.747 23.229C41.1056 24.9045 36.8404 27.4788 33.195 30.8045C29.55 34.1304 26.5964 38.1427 24.5039 42.6113C22.4113 47.0802 21.2206 51.9178 21 56.8473V440.118C21.2887 450.433 25.5162 460.249 32.814 467.545C40.1119 474.844 49.9268 479.072 60.2436 479.361H442.654C452.682 478.915 462.138 474.555 468.993 467.219C475.848 459.883 479.554 450.155 479.319 440.118V56.8473C479.402 52.0493 478.503 47.2853 476.678 42.8471C474.854 38.4091 472.141 34.3905 468.706 31.0376C465.275 27.685 461.193 25.0692 456.713 23.3502C452.233 21.6312 447.449 20.8455 442.654 21.0411ZM164.225 403.166H97.4821V198.927H164.225V403.166ZM132.429 167.99C127.772 168.152 123.131 167.35 118.798 165.633C114.466 163.916 110.535 161.321 107.254 158.012C103.972 154.704 101.41 150.752 99.7281 146.406C98.0464 142.059 97.2818 137.412 97.4821 132.756C97.2761 128.05 98.0561 123.353 99.7722 118.966C101.488 114.579 104.102 110.599 107.447 107.281C110.791 103.964 114.792 101.382 119.193 99.7016C123.594 98.021 128.297 97.2791 133.002 97.5232C137.659 97.361 142.3 98.1634 146.632 99.8804C150.965 101.597 154.895 104.192 158.177 107.5C161.459 110.809 164.021 114.761 165.703 119.107C167.384 123.453 168.149 128.101 167.949 132.756C168.155 137.463 167.375 142.16 165.658 146.547C163.942 150.934 161.328 154.914 157.984 158.232C154.639 161.549 150.639 164.131 146.238 165.811C141.837 167.492 137.133 168.234 132.429 167.99ZM403.124 403.166H336.095V291.45C336.095 264.811 326.642 246.478 302.866 246.478C295.482 246.541 288.295 248.887 282.296 253.195C276.295 257.503 271.775 263.562 269.352 270.54C267.49 275.77 266.711 281.324 267.06 286.867V403.166H201.177V198.927H267.06V227.572C272.918 216.81 281.635 207.879 292.251 201.76C302.866 195.644 314.966 192.582 327.215 192.911C370.469 192.911 403.124 221.557 403.124 282.571V403.166Z" fill="#707070"/>
</svg>
