<svg width="14" height="14" viewBox="0 0 14 14" fill="none" xmlns="http://www.w3.org/2000/svg">
<path d="M0 0.304348C0 0.136261 0.136261 0 0.304348 0H3.34783C3.51591 0 3.65217 0.136261 3.65217 0.304348V3.34783C3.65217 3.51591 3.51591 3.65217 3.34783 3.65217H0.304348C0.136261 3.65217 0 3.51591 0 3.34783V0.304348Z" fill="#111111"/>
<path d="M5.17391 0.304348C5.17391 0.136261 5.31017 0 5.47826 0H8.52174C8.68983 0 8.82609 0.136261 8.82609 0.304348V3.34783C8.82609 3.51591 8.68983 3.65217 8.52174 3.65217H5.47826C5.31017 3.65217 5.17391 3.51591 5.17391 3.34783V0.304348Z" fill="#111111"/>
<path d="M10.3478 0.304348C10.3478 0.136261 10.4841 0 10.6522 0H13.6957C13.8637 0 14 0.136261 14 0.304348V3.34783C14 3.51591 13.8637 3.65217 13.6957 3.65217H10.6522C10.4841 3.65217 10.3478 3.51591 10.3478 3.34783V0.304348Z" fill="#111111"/>
<path d="M0 5.47826C0 5.31017 0.136261 5.17391 0.304348 5.17391H3.34783C3.51591 5.17391 3.65217 5.31017 3.65217 5.47826V8.52174C3.65217 8.68983 3.51591 8.82609 3.34783 8.82609H0.304348C0.136261 8.82609 0 8.68983 0 8.52174V5.47826Z" fill="#111111"/>
<path d="M5.17391 5.47826C5.17391 5.31017 5.31017 5.17391 5.47826 5.17391H8.52174C8.68983 5.17391 8.82609 5.31017 8.82609 5.47826V8.52174C8.82609 8.68983 8.68983 8.82609 8.52174 8.82609H5.47826C5.31017 8.82609 5.17391 8.68983 5.17391 8.52174V5.47826Z" fill="#111111"/>
<path d="M10.3478 5.47826C10.3478 5.31017 10.4841 5.17391 10.6522 5.17391H13.6957C13.8637 5.17391 14 5.31017 14 5.47826V8.52174C14 8.68983 13.8637 8.82609 13.6957 8.82609H10.6522C10.4841 8.82609 10.3478 8.68983 10.3478 8.52174V5.47826Z" fill="#111111"/>
<path d="M0 10.6522C0 10.4841 0.136261 10.3478 0.304348 10.3478H3.34783C3.51591 10.3478 3.65217 10.4841 3.65217 10.6522V13.6957C3.65217 13.8637 3.51591 14 3.34783 14H0.304348C0.136261 14 0 13.8637 0 13.6957V10.6522Z" fill="#111111"/>
<path d="M5.17391 10.6522C5.17391 10.4841 5.31017 10.3478 5.47826 10.3478H8.52174C8.68983 10.3478 8.82609 10.4841 8.82609 10.6522V13.6957C8.82609 13.8637 8.68983 14 8.52174 14H5.47826C5.31017 14 5.17391 13.8637 5.17391 13.6957V10.6522Z" fill="#111111"/>
<path d="M10.3478 10.6522C10.3478 10.4841 10.4841 10.3478 10.6522 10.3478H13.6957C13.8637 10.3478 14 10.4841 14 10.6522V13.6957C14 13.8637 13.8637 14 13.6957 14H10.6522C10.4841 14 10.3478 13.8637 10.3478 13.6957V10.6522Z" fill="#111111"/>
</svg>
