<svg width="500" height="500" viewBox="0 0 500 500" fill="none" xmlns="http://www.w3.org/2000/svg">
<g clip-path="url(#clip0_2954_53)">
<path fill-rule="evenodd" clip-rule="evenodd" d="M199.711 314.653V174.357C249.516 197.793 288.09 220.433 333.711 244.841C296.084 265.709 249.516 289.123 199.711 314.653ZM477.275 104.582C468.684 93.2631 454.041 84.4522 438.452 81.5352C392.631 72.834 106.775 72.8092 60.9788 81.5352C48.4777 83.8787 37.3459 89.5433 27.7833 98.3443C-12.5091 135.742 0.116654 336.293 9.82868 368.779C13.9127 382.84 19.1923 392.981 25.8413 399.638C34.4077 408.439 46.1367 414.499 59.609 417.216C97.3364 425.02 291.701 429.383 437.655 418.388C451.102 416.045 463.006 409.79 472.394 400.615C509.648 363.367 507.108 151.553 477.275 104.582Z" fill="#707070"/>
</g>
<defs>
<clipPath id="clip0_2954_53">
<rect width="500" height="500" fill="white"/>
</clipPath>
</defs>
</svg>
