<svg width="32" height="32" viewBox="0 0 32 32" fill="none" xmlns="http://www.w3.org/2000/svg">
<path d="M17.2243 4.03166C16.8542 4.37046 16.6184 4.62659 16.6167 5.33338C16.6135 6.62699 16.6135 8.67602 16.6216 9.95828C16.6249 10.4041 16.8116 10.7607 17.1211 11.0395C17.7549 11.6085 20.7729 14.3157 21.2855 14.7858C21.6572 15.1408 22.0371 15.4521 22.8903 15.4521H26.6862C27.2905 15.4488 27.6835 15.2219 28.0307 14.8507C29.0247 13.9656 31.2633 11.9344 31.3484 11.8582C31.7202 11.5242 31.9887 11.0541 31.9887 10.5565C31.9904 7.94978 31.9969 4.85516 31.9969 2.22093C31.9969 1.67463 31.8086 1.07646 31.2977 0.594999C30.6672 6.7984e-05 29.8435 6.79968e-05 29.8435 6.79968e-05C29.8435 6.79968e-05 23.8647 0.00817333 22.6856 6.79968e-05C21.9765 -0.0047952 21.4116 0.251333 20.881 0.727927C20.7958 0.804117 17.2243 4.03166 17.2243 4.03166Z" fill="#ffffff"/>
<path d="M17.2243 27.9673C16.8542 27.6285 16.6184 27.3724 16.6168 26.6656C16.6135 25.372 16.6135 23.3229 16.6217 22.0407C16.625 21.5949 16.8117 21.2382 17.1212 20.9594C17.7549 20.3904 20.773 17.6832 21.2855 17.2131C21.6573 16.8581 22.0372 16.5469 22.8904 16.5469H26.6863C27.2906 16.5501 27.6836 16.7771 28.0308 17.1483C29.0248 18.0334 31.2633 20.0646 31.3485 20.1408C31.7202 20.4747 31.9888 20.9448 31.9888 21.4425C31.9904 24.0492 31.997 27.1438 31.997 29.778C31.997 30.3243 31.8087 30.9225 31.2977 31.404C30.6673 31.9973 29.8436 31.9989 29.8436 31.9989C29.8436 31.9989 23.8631 31.9924 22.6857 31.9989C21.9766 32.0037 21.4116 31.7476 20.8811 31.271C20.7959 31.1948 17.2243 27.9673 17.2243 27.9673Z" fill="#ffffff"/>
<path d="M14.7726 4.03166C15.1427 4.37046 15.3786 4.62659 15.3802 5.33338C15.3835 6.62699 15.3835 8.67602 15.3753 9.95828C15.372 10.4041 15.1853 10.7607 14.8758 11.0395C14.2421 11.6085 11.224 14.3157 10.7114 14.7858C10.3397 15.1408 9.95979 15.4521 9.10661 15.4521H5.31069C4.70642 15.4488 4.3134 15.2219 3.96623 14.8507C2.97222 13.9656 0.733638 11.9344 0.648483 11.8582C0.276752 11.5226 0.00818792 11.0525 0.00818792 10.5565C0.00491275 7.94978 0 4.85354 0 2.21931C0 1.67301 0.188322 1.07484 0.699248 0.593378C1.32972 6.7984e-05 2.15342 6.79968e-05 2.15342 6.79968e-05C2.15342 6.79968e-05 8.13388 0.00655226 9.3113 6.79968e-05C10.0204 -0.0047952 10.5853 0.251333 11.1159 0.727927C11.2011 0.804117 14.7726 4.03166 14.7726 4.03166Z" fill="#ffffff"/>
<path d="M14.7726 27.9673C15.1427 27.6285 15.3786 27.3724 15.3802 26.6656C15.3835 25.372 15.3835 23.3229 15.3753 22.0407C15.372 21.5949 15.1853 21.2382 14.8758 20.9594C14.2421 20.3904 11.224 17.6832 10.7114 17.2131C10.3397 16.8581 9.95979 16.5469 9.10661 16.5469H5.31069C4.70642 16.5501 4.3134 16.7771 3.96623 17.1483C2.97222 18.0334 0.733638 20.0646 0.648483 20.1408C0.276752 20.4747 0.00818792 20.9448 0.00818792 21.4425C0.00491275 24.0492 0 27.1454 0 29.7796C0 30.3259 0.188322 30.9241 0.699248 31.4056C1.32972 31.9989 2.15342 32.0005 2.15342 32.0005C2.15342 32.0005 8.13388 31.994 9.3113 32.0005C10.0204 32.0054 10.5853 31.7492 11.1159 31.2726C11.2011 31.1965 14.7726 27.9689 14.7726 27.9689V27.9673Z" fill="#ffffff"/>
</svg>
