<svg width="190" height="26" viewBox="0 0 190 26" fill="none" xmlns="http://www.w3.org/2000/svg">
<path fill-rule="evenodd" clip-rule="evenodd" d="M42.3133 13.0611C42.3133 14.874 41.3185 16.0478 39.3139 16.0478C37.3094 16.0478 36.2996 14.874 36.2996 13.0611V7.80078H33.271V13.2986C33.271 16.4637 35.4387 18.544 39.3139 18.544C43.1891 18.544 45.3419 16.4637 45.3419 13.2986V7.80078H42.3133V13.0611Z" fill="black"/>
<path fill-rule="evenodd" clip-rule="evenodd" d="M56.7242 14.1602L50.5623 7.80078H47.3555V18.2017H50.2801V11.3667L56.9914 18.2017H59.6488V7.80078H56.7242V14.1602Z" fill="black"/>
<path fill-rule="evenodd" clip-rule="evenodd" d="M73.8193 11.3523C73.8193 8.97466 71.7556 7.80078 69.0976 7.80078H61.8076V18.2023H64.8219V14.9182H67.8804L70.6275 18.2023H74.1463L71.0878 14.6657C72.7205 14.1907 73.8193 13.091 73.8193 11.3523ZM68.8752 12.7195H64.807V10.1043H68.8752C69.9591 10.1043 70.7459 10.4016 70.7459 11.4116C70.7459 12.4215 69.9591 12.7195 68.8752 12.7195Z" fill="black"/>
<path fill-rule="evenodd" clip-rule="evenodd" d="M78.4092 14.0417H84.9573V11.8274H78.4092V10.1186H86.3526V7.80078H75.4248V18.2017H86.5159V15.8839H78.4092V14.0417Z" fill="black"/>
<path fill-rule="evenodd" clip-rule="evenodd" d="M92.5601 7.80078L87.1855 18.2023H90.363L91.3429 16.2112H97.0445L98.0243 18.2023H101.246L95.8715 7.80078H92.5601ZM92.3819 14.0561L94.1934 10.3711L95.9899 14.0561H92.3819Z" fill="black"/>
<path fill-rule="evenodd" clip-rule="evenodd" d="M105.211 7.80078H102.182V18.2017H112.204V15.7654H105.211V7.80078Z" fill="black"/>
<path fill-rule="evenodd" clip-rule="evenodd" d="M120.533 14.0417H127.081V11.8274H120.533V10.1186H128.477V7.80078H117.549V18.2017H128.64V15.8839H120.533V14.0417Z" fill="black"/>
<path fill-rule="evenodd" clip-rule="evenodd" d="M139.676 14.1602L133.514 7.80078H130.308V18.2017H133.232V11.3667L139.944 18.2017H142.601V7.80078H139.676V14.1602Z" fill="black"/>
<path fill-rule="evenodd" clip-rule="evenodd" d="M150.757 14.307H154.202V15.2434C153.475 15.9123 152.465 16.1648 151.188 16.1648C148.664 16.1648 147.239 15.0501 147.239 12.9997C147.239 10.9643 148.62 9.84966 151.144 9.84966C152.54 9.84966 153.475 10.2062 154.365 11.0086L156.577 9.374C155.493 8.36347 153.638 7.45703 151.069 7.45703C146.807 7.45703 144.165 9.47811 144.165 12.9997C144.165 16.5214 146.808 18.5425 151.069 18.5425C153.845 18.5425 155.894 17.6211 157.008 16.2396V12.1831H150.757V14.307H150.757Z" fill="black"/>
<path d="M161.821 7.80078H158.792V18.2023H161.821V7.80078Z" fill="black"/>
<path fill-rule="evenodd" clip-rule="evenodd" d="M173.317 14.1602L167.156 7.80078H163.949V18.2017H166.874V11.3667L173.585 18.2017H176.243V7.80078H173.317V14.1602Z" fill="black"/>
<path fill-rule="evenodd" clip-rule="evenodd" d="M181.385 15.8839V14.0417H187.933V11.8274H181.385V10.1186H189.328V7.80078H178.4V18.2017H189.491V15.8839H181.385Z" fill="black"/>
<path fill-rule="evenodd" clip-rule="evenodd" d="M13.7886 0C6.61457 0 0.798828 5.82032 0.798828 13C0.798828 20.1797 6.61457 26 13.7886 26C20.9626 26 26.7784 20.1797 26.7784 13C26.7784 5.82032 20.9626 0 13.7886 0ZM17.1114 20.2275L15.8362 18.7922L13.684 20.9575C12.4596 20.9413 11.255 20.6416 10.1651 20.0822C9.07527 19.5227 8.12949 18.7186 7.40192 17.7326C7.6303 17.8038 7.86644 17.8487 8.10558 17.8654C8.4583 17.872 8.83972 17.7422 8.83972 17.1499V11.3062C8.8445 11.156 8.81461 11.0064 8.75184 10.87C8.68906 10.7336 8.5952 10.614 8.47743 10.52C8.36026 10.4261 8.22216 10.3615 8.07569 10.3304C7.92862 10.2992 7.77677 10.3034 7.63149 10.3411C6.6349 10.5709 5.83918 13.0592 5.83918 13.0592C5.82782 11.9105 6.06696 10.7725 6.53925 9.72547C7.01154 8.67843 7.70622 7.74687 8.57488 6.9954C9.71794 6.0058 11.1181 5.35963 12.6121 5.13167C11.524 5.75212 10.9124 6.76385 10.9124 7.61285C10.9124 8.97938 11.735 8.81365 11.9784 8.61262V16.4989C12.0196 16.5976 12.074 16.691 12.1392 16.7765C12.248 16.9273 12.3909 17.0493 12.5565 17.1331C12.7221 17.2169 12.905 17.2599 13.0909 17.2587C13.9141 17.2587 14.9825 16.3182 14.9825 16.3182V9.93607C14.9825 9.28691 14.4935 8.50193 14.0032 8.2327C14.0032 8.2327 14.9101 8.07175 15.6096 8.60783C15.7411 8.44689 15.8804 8.29372 16.0281 8.14714C17.6608 6.54368 19.199 6.08717 20.4796 5.85862C20.4796 5.85862 18.1504 7.69063 18.1504 10.1485C18.1504 11.9763 18.1976 16.4337 18.1976 16.4337C19.0621 17.2689 20.3469 16.0621 21.5085 14.8721C21.2837 15.9532 20.2877 18.7264 17.1114 20.2275Z" fill="black"/>
</svg>
