<svg width="93" height="16" viewBox="0 0 93 16" fill="none" xmlns="http://www.w3.org/2000/svg">
<g clip-path="url(#clip0_895_699)">
<path fill-rule="evenodd" clip-rule="evenodd" d="M90.9444 12.9219C90.1696 12.9219 89.542 13.5495 89.542 14.3145C89.542 15.0794 90.1696 15.7168 90.9444 15.7168C91.7191 15.7168 92.337 15.0892 92.337 14.3145C92.337 13.5397 91.7142 12.9219 90.9444 12.9219ZM90.9444 15.5501C90.2628 15.5501 89.7136 15.0009 89.7136 14.3145C89.7136 13.628 90.2628 13.0886 90.9444 13.0886C91.626 13.0886 92.1702 13.6378 92.1702 14.3145C92.1702 14.9911 91.6211 15.5501 90.9444 15.5501Z" fill="black" fill-opacity="0.48"/>
<path fill-rule="evenodd" clip-rule="evenodd" d="M91.6654 13.948C91.6654 13.8157 91.6065 13.6784 91.4889 13.6097C91.3712 13.5411 91.2388 13.5312 91.1064 13.5312H90.4248V15.0955H90.616V14.3746H90.9691L91.4153 15.0955H91.6409L91.1701 14.3746C91.4496 14.3697 91.6654 14.2521 91.6654 13.948ZM90.9103 14.2226H90.616V13.6685H91.0623C91.2584 13.6685 91.4692 13.698 91.4692 13.9382C91.4692 14.257 91.1309 14.2177 90.9103 14.2177V14.2226Z" fill="black" fill-opacity="0.48"/>
<path fill-rule="evenodd" clip-rule="evenodd" d="M82.751 6.38873L85.6097 3.33877C85.7764 3.11322 85.8598 2.9563 85.8598 2.82391C85.8598 2.59835 85.6686 2.51009 85.0605 2.51009H84.3397V0.578125H92.146V2.50519H91.1212C89.9346 2.50519 89.7139 2.68661 88.0615 4.76568L83.5405 9.64953V12.6308C83.5405 13.3909 83.9278 13.6606 85.0262 13.6606H86.7326V15.519H75.7979V13.6606H77.5043C78.6076 13.6606 78.9901 13.3909 78.9901 12.6308V9.64953L73.6649 3.75557C72.7823 2.72584 72.9049 2.50028 70.4531 2.50028V0.578125H80.3434V2.50519H79.6373C78.9214 2.50519 78.6174 2.63758 78.6174 2.90727C78.6174 3.13283 78.838 3.30935 78.9753 3.49078L81.6723 6.42796C81.991 6.76139 82.3833 6.80552 82.7461 6.38873H82.751Z" fill="black" fill-opacity="0.48"/>
<path fill-rule="evenodd" clip-rule="evenodd" d="M16.3971 0.580107H18.7802V5.95921H16.5785C16.3824 4.88535 15.7106 4.46365 15.0977 3.89975C13.9895 2.88474 11.5966 2.03644 9.57636 2.03644C6.97263 2.03644 4.78078 2.84551 4.78078 4.03215C4.78078 7.32727 19.6579 4.70392 19.6579 10.9313C19.6579 14.1823 16.4706 15.9966 10.7483 15.9966C8.76729 15.9966 5.76637 15.3837 4.00113 14.4422C3.44704 14.1235 3.21167 14.7462 3.1087 15.5259H0.661869V9.97024H2.87333C3.35877 11.3824 4.03545 11.6717 4.65329 12.2356C5.72715 13.2212 8.28185 13.9371 10.6208 13.9175C14.1513 13.8832 15.3674 13.1134 15.3674 11.9905C15.3674 10.8676 14.166 10.6028 10.2972 9.99476L7.01185 9.45538C3.29993 8.89148 0.603027 8.06279 0.603027 5.106C0.603027 2.14922 4.01584 0.109375 9.41455 0.109375C11.6898 0.109375 13.5923 0.41339 15.4213 1.44802C15.9263 1.77655 16.402 1.81578 16.3971 0.580107Z" fill="black" fill-opacity="0.48"/>
<path fill-rule="evenodd" clip-rule="evenodd" d="M62.9508 9.58529L62.9998 3.60797C62.9998 2.82342 62.5929 2.55373 61.4258 2.55373H60.0578V0.695312H68.7712V2.55373H67.6336C66.4666 2.55373 66.0596 2.82342 66.0596 3.60797V15.6411L62.6468 15.6166L51.6042 5.15746V12.7529C51.6042 13.513 52.0112 13.8072 53.1782 13.8072H54.6934V15.646H45.6465V13.8072H47.1469C48.314 13.8072 48.721 13.5179 48.721 12.7529V3.60797C48.721 2.82342 48.314 2.55373 47.1469 2.55373H45.6465V0.695312H53.4724L62.9557 9.58529H62.9508Z" fill="black" fill-opacity="0.48"/>
<path fill-rule="evenodd" clip-rule="evenodd" d="M33.7644 0.00490346C26.8211 0.00490346 22.4717 3.07447 22.4717 8.00245C22.4717 12.9304 26.7573 15.8872 33.5535 15.8872C40.7665 15.8872 44.9639 12.8863 44.9639 7.75238C44.9639 3.13822 40.4331 0 33.7644 0V0.00490346ZM33.6074 13.9405C29.7631 13.9405 27.5517 11.7242 27.5517 7.88967C27.5517 4.05516 29.8563 1.93196 33.7987 1.93196C37.7411 1.93196 39.7858 4.19736 39.7858 8.04658C39.7858 11.8958 37.5449 13.9405 33.6025 13.9405H33.6074Z" fill="black" fill-opacity="0.48"/>
</g>
<defs>
<clipPath id="clip0_895_699">
<rect width="91.7389" height="16" fill="white" transform="translate(0.603027)"/>
</clipPath>
</defs>
</svg>
