<svg width="485" height="489" viewBox="0 0 485 489" fill="none" xmlns="http://www.w3.org/2000/svg">
<g filter="url(#filter0_bdd_895_551)">
<path d="M254.95 81.368C251.191 84.8444 248.796 87.4725 248.779 94.7247C248.746 107.998 248.746 129.023 248.829 142.18C248.862 146.754 250.758 150.413 253.902 153.274C260.339 159.113 290.995 186.89 296.201 191.714C299.977 195.357 303.836 198.551 312.502 198.551H351.058C357.196 198.517 361.188 196.189 364.714 192.38C374.811 183.298 397.548 162.456 398.413 161.674C402.189 158.248 404.917 153.424 404.917 148.318C404.934 121.571 405 89.8178 405 62.7885C405 57.183 403.087 51.0453 397.898 46.1052C391.494 40.0007 383.127 40.0007 383.127 40.0007C383.127 40.0007 322.399 40.0839 310.423 40.0007C303.22 39.9508 297.482 42.5789 292.093 47.4691C291.228 48.2509 254.95 81.368 254.95 81.368Z" fill="white" fill-opacity="0.08" shape-rendering="crispEdges"/>
<path d="M254.95 81.368C251.191 84.8444 248.796 87.4725 248.779 94.7247C248.746 107.998 248.746 129.023 248.829 142.18C248.862 146.754 250.758 150.413 253.902 153.274C260.339 159.113 290.995 186.89 296.201 191.714C299.977 195.357 303.836 198.551 312.502 198.551H351.058C357.196 198.517 361.188 196.189 364.714 192.38C374.811 183.298 397.548 162.456 398.413 161.674C402.189 158.248 404.917 153.424 404.917 148.318C404.934 121.571 405 89.8178 405 62.7885C405 57.183 403.087 51.0453 397.898 46.1052C391.494 40.0007 383.127 40.0007 383.127 40.0007C383.127 40.0007 322.399 40.0839 310.423 40.0007C303.22 39.9508 297.482 42.5789 292.093 47.4691C291.228 48.2509 254.95 81.368 254.95 81.368Z" fill="#5E5E5E" fill-opacity="0.16" style="mix-blend-mode:color-dodge" shape-rendering="crispEdges"/>
<path d="M249.279 94.7258L249.279 94.7259C249.246 107.999 249.246 129.022 249.329 142.176C249.361 146.596 251.186 150.127 254.239 152.905C255.064 153.653 256.288 154.763 257.805 156.138C268.12 165.49 292 187.14 296.541 191.347L296.548 191.354C298.43 193.17 300.293 194.833 302.74 196.051C305.181 197.265 308.234 198.051 312.502 198.051H351.055C357.031 198.018 360.897 195.766 364.347 192.04L364.363 192.023L364.38 192.008C372.464 184.736 388.63 169.946 395.214 163.922C396.855 162.421 397.9 161.464 398.077 161.304C401.779 157.945 404.417 153.247 404.417 148.318V148.317C404.424 137.133 404.44 125.074 404.456 112.852C404.478 95.8425 404.5 78.5162 404.5 62.7885C404.5 57.2983 402.629 51.2992 397.553 46.4673L397.553 46.4671C394.43 43.49 390.822 41.996 387.984 41.2472C386.566 40.8732 385.345 40.6864 384.481 40.5932C384.049 40.5466 383.707 40.5235 383.475 40.512C383.358 40.5063 383.27 40.5034 383.211 40.502C383.182 40.5014 383.16 40.501 383.146 40.5009L383.13 40.5007L383.127 40.5007L249.279 94.7258ZM249.279 94.7258C249.287 91.1567 249.88 88.7732 250.902 86.8666C251.929 84.9497 253.41 83.473 255.29 81.7351L249.279 94.7258ZM310.423 40.0007C303.22 39.9508 297.482 42.5789 292.093 47.4691L397.898 46.1052C391.494 40.0007 383.127 40.0007 383.127 40.0007C383.127 40.0007 322.399 40.0839 310.423 40.0007Z" stroke="url(#paint0_linear_895_551)" shape-rendering="crispEdges"/>
</g>
<g filter="url(#filter1_bdd_895_551)">
<path d="M254.95 326.921C251.191 323.444 248.796 320.816 248.779 313.564C248.746 300.291 248.746 279.266 248.829 266.109C248.862 261.535 250.758 257.875 253.902 255.014C260.339 249.176 290.995 221.398 296.201 216.575C299.977 212.932 303.836 209.738 312.502 209.738H351.058C357.196 209.772 361.188 212.1 364.714 215.909C374.811 224.991 397.548 245.833 398.413 246.615C402.189 250.041 404.917 254.865 404.917 259.971C404.934 286.718 405 318.471 405 345.5C405 351.106 403.087 357.243 397.898 362.184C391.494 368.271 383.127 368.288 383.127 368.288C383.127 368.288 322.382 368.222 310.423 368.288C303.22 368.338 297.482 365.71 292.093 360.82C291.228 360.038 254.95 326.921 254.95 326.921Z" fill="white" fill-opacity="0.08" shape-rendering="crispEdges"/>
<path d="M254.95 326.921C251.191 323.444 248.796 320.816 248.779 313.564C248.746 300.291 248.746 279.266 248.829 266.109C248.862 261.535 250.758 257.875 253.902 255.014C260.339 249.176 290.995 221.398 296.201 216.575C299.977 212.932 303.836 209.738 312.502 209.738H351.058C357.196 209.772 361.188 212.1 364.714 215.909C374.811 224.991 397.548 245.833 398.413 246.615C402.189 250.041 404.917 254.865 404.917 259.971C404.934 286.718 405 318.471 405 345.5C405 351.106 403.087 357.243 397.898 362.184C391.494 368.271 383.127 368.288 383.127 368.288C383.127 368.288 322.382 368.222 310.423 368.288C303.22 368.338 297.482 365.71 292.093 360.82C291.228 360.038 254.95 326.921 254.95 326.921Z" fill="#5E5E5E" fill-opacity="0.16" style="mix-blend-mode:color-dodge" shape-rendering="crispEdges"/>
<path d="M249.279 313.563L249.279 313.563C249.287 317.132 249.88 319.516 250.902 321.422C251.929 323.339 253.409 324.815 255.288 326.552L255.289 326.553L255.29 326.554L255.294 326.558L255.313 326.575L255.391 326.647L255.695 326.924L256.848 327.976L260.969 331.738C264.384 334.855 268.945 339.019 273.534 343.208C282.713 351.586 291.997 360.059 292.428 360.449L292.429 360.449C297.743 365.271 303.364 367.837 310.419 367.788L310.42 367.788C316.401 367.755 334.58 367.755 351.26 367.763C359.601 367.767 367.568 367.774 373.449 367.779C376.39 367.781 378.81 367.784 380.494 367.785L382.443 367.787L382.953 367.788L383.084 367.788L383.117 367.788L383.125 367.788L249.279 313.563ZM249.279 313.563C249.246 300.29 249.246 279.267 249.329 266.112M249.279 313.563L249.329 266.112M249.329 266.112C249.361 261.693 251.186 258.162 254.238 255.385C255.064 254.636 256.288 253.526 257.806 252.15C268.121 242.798 292 221.148 296.541 216.941L296.541 216.941L296.548 216.934C298.43 215.119 300.293 213.456 302.74 212.238C305.181 211.024 308.234 210.238 312.502 210.238H351.057C357.031 210.271 360.898 212.523 364.347 216.249L364.363 216.266L364.38 216.281C372.463 223.552 388.629 238.342 395.213 244.366C396.854 245.868 397.9 246.825 398.077 246.985C401.779 250.344 404.417 255.042 404.417 259.971V259.972C404.424 271.156 404.44 283.215 404.456 295.437C404.478 312.446 404.5 329.773 404.5 345.5C404.5 350.99 402.629 356.99 397.553 361.821C394.43 364.79 390.822 366.284 387.983 367.035C386.565 367.411 385.344 367.599 384.48 367.693C384.048 367.741 383.706 367.764 383.474 367.776C383.358 367.782 383.269 367.785 383.21 367.787C383.181 367.787 383.159 367.788 383.145 367.788L383.13 367.788L383.127 367.788L249.329 266.112Z" stroke="url(#paint1_linear_895_551)" shape-rendering="crispEdges"/>
</g>
<g filter="url(#filter2_bdd_895_551)">
<path d="M230.05 81.368C233.809 84.8444 236.204 87.4725 236.221 94.7247C236.254 107.998 236.254 129.023 236.171 142.18C236.138 146.754 234.242 150.413 231.098 153.274C224.661 159.113 194.006 186.89 188.799 191.714C185.023 195.357 181.164 198.551 172.498 198.551H133.942C127.804 198.517 123.812 196.189 120.286 192.38C110.19 183.298 87.4518 162.456 86.5868 161.674C82.811 158.231 80.0832 153.407 80.0832 148.318C80.0499 121.571 80 89.8012 80 62.7719C80 57.1664 81.9128 51.0287 87.1025 46.0885C93.5063 40.0007 101.873 40.0007 101.873 40.0007C101.873 40.0007 162.618 40.0672 174.578 40.0007C181.78 39.9508 187.518 42.5789 192.908 47.4691C193.773 48.2509 230.05 81.368 230.05 81.368Z" fill="white" fill-opacity="0.08" shape-rendering="crispEdges"/>
<path d="M230.05 81.368C233.809 84.8444 236.204 87.4725 236.221 94.7247C236.254 107.998 236.254 129.023 236.171 142.18C236.138 146.754 234.242 150.413 231.098 153.274C224.661 159.113 194.006 186.89 188.799 191.714C185.023 195.357 181.164 198.551 172.498 198.551H133.942C127.804 198.517 123.812 196.189 120.286 192.38C110.19 183.298 87.4518 162.456 86.5868 161.674C82.811 158.231 80.0832 153.407 80.0832 148.318C80.0499 121.571 80 89.8012 80 62.7719C80 57.1664 81.9128 51.0287 87.1025 46.0885C93.5063 40.0007 101.873 40.0007 101.873 40.0007C101.873 40.0007 162.618 40.0672 174.578 40.0007C181.78 39.9508 187.518 42.5789 192.908 47.4691C193.773 48.2509 230.05 81.368 230.05 81.368Z" fill="#5E5E5E" fill-opacity="0.16" style="mix-blend-mode:color-dodge" shape-rendering="crispEdges"/>
<path d="M87.1025 46.0885C93.5063 40.0007 101.873 40.0007 101.873 40.0007M87.1025 46.0885C81.9128 51.0287 80 57.1664 80 62.7719C80 84.7514 80.033 109.866 80.0632 132.864C80.0702 138.148 80.077 143.321 80.0832 148.318C80.0832 153.407 82.811 158.231 86.5868 161.674L86.9237 161.305C86.9236 161.305 86.9235 161.305 86.9233 161.304M87.1025 46.0885L87.4472 46.4507C87.4471 46.4508 87.4471 46.4508 87.447 46.4509M87.1025 46.0885L87.447 46.4509M101.873 40.0007L86.9233 161.304M101.873 40.0007C101.873 40.0007 162.618 40.0672 174.578 40.0007H101.873ZM86.9233 161.304C87.102 161.466 88.1479 162.423 89.7883 163.924C96.3733 169.948 112.537 184.737 120.621 192.008L120.638 192.023L120.653 192.04C124.103 195.766 127.969 198.018 133.945 198.051H172.498C176.766 198.051 179.819 197.265 182.26 196.051C184.707 194.833 186.57 193.17 188.452 191.354L188.459 191.347C193 187.141 216.878 165.492 227.193 156.14C228.711 154.763 229.936 153.653 230.761 152.905C233.814 150.127 235.639 146.596 235.671 142.176C235.754 129.021 235.754 107.999 235.721 94.7258C235.713 91.1567 235.12 88.7732 234.098 86.8666C233.071 84.9503 231.591 83.4739 229.712 81.7367L229.711 81.7358L229.711 81.7351L229.706 81.7313L229.687 81.7133L229.609 81.6423L229.305 81.3652L228.153 80.3128L224.031 76.5505C220.617 73.4336 216.055 69.2695 211.466 65.081C202.288 56.703 193.004 48.2298 192.572 47.84L192.572 47.8394C187.258 43.0173 181.636 40.4518 174.581 40.5007L174.58 40.5007C168.599 40.534 150.421 40.534 133.74 40.5256C125.4 40.5215 117.433 40.5153 111.551 40.5101C108.61 40.5075 106.19 40.5051 104.506 40.5034L102.558 40.5014L102.047 40.5009L101.916 40.5007L101.883 40.5007L101.875 40.5007L101.873 40.5007L101.873 40.5007L101.87 40.5007L101.855 40.5008C101.84 40.501 101.819 40.5013 101.789 40.502C101.731 40.5034 101.642 40.5063 101.526 40.512C101.293 40.5234 100.951 40.5465 100.519 40.593C99.655 40.6859 98.4342 40.8722 97.0164 41.2452C94.1781 41.992 90.57 43.482 87.447 46.4509M86.9233 161.304C83.2207 157.928 80.5832 153.23 80.5832 148.318L80.5832 148.317C80.577 143.32 80.5702 138.148 80.5632 132.864C80.533 109.865 80.5 84.7511 80.5 62.7719C80.5 57.2818 82.3713 51.2827 87.447 46.4509" stroke="url(#paint2_linear_895_551)" shape-rendering="crispEdges"/>
</g>
<g filter="url(#filter3_bdd_895_551)">
<path d="M230.05 326.921C233.809 323.444 236.204 320.816 236.221 313.564C236.254 300.291 236.254 279.266 236.171 266.109C236.138 261.535 234.242 257.875 231.098 255.014C224.661 249.176 194.006 221.398 188.799 216.575C185.023 212.932 181.164 209.738 172.498 209.738H133.942C127.804 209.772 123.812 212.1 120.286 215.909C110.19 224.991 87.4518 245.833 86.5868 246.615C82.811 250.041 80.0832 254.865 80.0832 259.971C80.0499 286.718 80 318.488 80 345.517C80 351.122 81.9128 357.26 87.1025 362.2C93.5063 368.288 101.873 368.305 101.873 368.305C101.873 368.305 162.618 368.238 174.578 368.305C181.78 368.355 187.518 365.727 192.908 360.836C193.773 360.055 230.05 326.937 230.05 326.937V326.921Z" fill="white" fill-opacity="0.08" shape-rendering="crispEdges"/>
<path d="M230.05 326.921C233.809 323.444 236.204 320.816 236.221 313.564C236.254 300.291 236.254 279.266 236.171 266.109C236.138 261.535 234.242 257.875 231.098 255.014C224.661 249.176 194.006 221.398 188.799 216.575C185.023 212.932 181.164 209.738 172.498 209.738H133.942C127.804 209.772 123.812 212.1 120.286 215.909C110.19 224.991 87.4518 245.833 86.5868 246.615C82.811 250.041 80.0832 254.865 80.0832 259.971C80.0499 286.718 80 318.488 80 345.517C80 351.122 81.9128 357.26 87.1025 362.2C93.5063 368.288 101.873 368.305 101.873 368.305C101.873 368.305 162.618 368.238 174.578 368.305C181.78 368.355 187.518 365.727 192.908 360.836C193.773 360.055 230.05 326.937 230.05 326.937V326.921Z" fill="#5E5E5E" fill-opacity="0.16" style="mix-blend-mode:color-dodge" shape-rendering="crispEdges"/>
<path d="M229.711 326.554L229.55 326.702V326.717L229.305 326.94L228.153 327.993L224.031 331.755C220.617 334.872 216.055 339.036 211.466 343.224C202.288 351.602 193.004 360.076 192.572 360.465L192.572 360.466C187.258 365.288 181.636 367.854 174.581 367.805H174.58C168.599 367.771 150.421 367.771 133.74 367.78C125.4 367.784 117.433 367.79 111.551 367.795C108.61 367.798 106.19 367.8 104.506 367.802L102.558 367.804L102.047 367.805L101.916 367.805L101.883 367.805L101.875 367.805H101.874H101.874H101.873L101.871 367.805L101.856 367.805C101.85 367.804 101.843 367.804 101.834 367.804C101.822 367.804 101.807 367.804 101.79 367.803C101.731 367.802 101.643 367.799 101.526 367.793C101.294 367.781 100.952 367.757 100.52 367.71C99.6558 367.615 98.435 367.427 97.017 367.052C94.1787 366.301 90.5704 364.807 87.4472 361.838C82.3713 357.006 80.5 351.007 80.5 345.517C80.5 323.538 80.533 298.424 80.5632 275.425C80.5702 270.141 80.577 264.969 80.5832 259.972V259.971C80.5832 255.042 83.221 250.344 86.9224 246.985C87.0983 246.826 88.1445 245.869 89.7868 244.367C96.3709 238.343 112.537 223.553 120.621 216.281L120.638 216.266L120.653 216.249C124.103 212.523 127.969 210.271 133.944 210.238H172.498C176.766 210.238 179.819 211.024 182.26 212.238C184.707 213.456 186.57 215.119 188.452 216.934L188.452 216.935L188.459 216.941C193 221.148 216.877 242.796 227.193 252.149C228.711 253.525 229.936 254.636 230.762 255.385C233.814 258.162 235.639 261.693 235.671 266.113C235.754 279.268 235.754 300.29 235.721 313.563C235.713 317.132 235.12 319.516 234.098 321.422C233.071 323.339 231.59 324.816 229.711 326.554Z" stroke="url(#paint3_linear_895_551)" shape-rendering="crispEdges"/>
</g>
<defs>
<filter id="filter0_bdd_895_551" x="148.758" y="-60" width="356.242" height="378.551" filterUnits="userSpaceOnUse" color-interpolation-filters="sRGB">
<feFlood flood-opacity="0" result="BackgroundImageFix"/>
<feGaussianBlur in="BackgroundImageFix" stdDeviation="50"/>
<feComposite in2="SourceAlpha" operator="in" result="effect1_backgroundBlur_895_551"/>
<feColorMatrix in="SourceAlpha" type="matrix" values="0 0 0 0 0 0 0 0 0 0 0 0 0 0 0 0 0 0 127 0" result="hardAlpha"/>
<feOffset dy="40"/>
<feGaussianBlur stdDeviation="40"/>
<feComposite in2="hardAlpha" operator="out"/>
<feColorMatrix type="matrix" values="0 0 0 0 0 0 0 0 0 0 0 0 0 0 0 0 0 0 0.28 0"/>
<feBlend mode="normal" in2="effect1_backgroundBlur_895_551" result="effect2_dropShadow_895_551"/>
<feColorMatrix in="SourceAlpha" type="matrix" values="0 0 0 0 0 0 0 0 0 0 0 0 0 0 0 0 0 0 127 0" result="hardAlpha"/>
<feOffset dy="8"/>
<feGaussianBlur stdDeviation="6"/>
<feComposite in2="hardAlpha" operator="out"/>
<feColorMatrix type="matrix" values="0 0 0 0 0 0 0 0 0 0 0 0 0 0 0 0 0 0 0.08 0"/>
<feBlend mode="normal" in2="effect2_dropShadow_895_551" result="effect3_dropShadow_895_551"/>
<feBlend mode="normal" in="SourceGraphic" in2="effect3_dropShadow_895_551" result="shape"/>
</filter>
<filter id="filter1_bdd_895_551" x="148.758" y="109.738" width="356.242" height="378.551" filterUnits="userSpaceOnUse" color-interpolation-filters="sRGB">
<feFlood flood-opacity="0" result="BackgroundImageFix"/>
<feGaussianBlur in="BackgroundImageFix" stdDeviation="50"/>
<feComposite in2="SourceAlpha" operator="in" result="effect1_backgroundBlur_895_551"/>
<feColorMatrix in="SourceAlpha" type="matrix" values="0 0 0 0 0 0 0 0 0 0 0 0 0 0 0 0 0 0 127 0" result="hardAlpha"/>
<feOffset dy="40"/>
<feGaussianBlur stdDeviation="40"/>
<feComposite in2="hardAlpha" operator="out"/>
<feColorMatrix type="matrix" values="0 0 0 0 0 0 0 0 0 0 0 0 0 0 0 0 0 0 0.28 0"/>
<feBlend mode="normal" in2="effect1_backgroundBlur_895_551" result="effect2_dropShadow_895_551"/>
<feColorMatrix in="SourceAlpha" type="matrix" values="0 0 0 0 0 0 0 0 0 0 0 0 0 0 0 0 0 0 127 0" result="hardAlpha"/>
<feOffset dy="8"/>
<feGaussianBlur stdDeviation="6"/>
<feComposite in2="hardAlpha" operator="out"/>
<feColorMatrix type="matrix" values="0 0 0 0 0 0 0 0 0 0 0 0 0 0 0 0 0 0 0.08 0"/>
<feBlend mode="normal" in2="effect2_dropShadow_895_551" result="effect3_dropShadow_895_551"/>
<feBlend mode="normal" in="SourceGraphic" in2="effect3_dropShadow_895_551" result="shape"/>
</filter>
<filter id="filter2_bdd_895_551" x="-20" y="-60" width="356.242" height="378.551" filterUnits="userSpaceOnUse" color-interpolation-filters="sRGB">
<feFlood flood-opacity="0" result="BackgroundImageFix"/>
<feGaussianBlur in="BackgroundImageFix" stdDeviation="50"/>
<feComposite in2="SourceAlpha" operator="in" result="effect1_backgroundBlur_895_551"/>
<feColorMatrix in="SourceAlpha" type="matrix" values="0 0 0 0 0 0 0 0 0 0 0 0 0 0 0 0 0 0 127 0" result="hardAlpha"/>
<feOffset dy="40"/>
<feGaussianBlur stdDeviation="40"/>
<feComposite in2="hardAlpha" operator="out"/>
<feColorMatrix type="matrix" values="0 0 0 0 0 0 0 0 0 0 0 0 0 0 0 0 0 0 0.28 0"/>
<feBlend mode="normal" in2="effect1_backgroundBlur_895_551" result="effect2_dropShadow_895_551"/>
<feColorMatrix in="SourceAlpha" type="matrix" values="0 0 0 0 0 0 0 0 0 0 0 0 0 0 0 0 0 0 127 0" result="hardAlpha"/>
<feOffset dy="8"/>
<feGaussianBlur stdDeviation="6"/>
<feComposite in2="hardAlpha" operator="out"/>
<feColorMatrix type="matrix" values="0 0 0 0 0 0 0 0 0 0 0 0 0 0 0 0 0 0 0.08 0"/>
<feBlend mode="normal" in2="effect2_dropShadow_895_551" result="effect3_dropShadow_895_551"/>
<feBlend mode="normal" in="SourceGraphic" in2="effect3_dropShadow_895_551" result="shape"/>
</filter>
<filter id="filter3_bdd_895_551" x="-20" y="109.738" width="356.242" height="378.567" filterUnits="userSpaceOnUse" color-interpolation-filters="sRGB">
<feFlood flood-opacity="0" result="BackgroundImageFix"/>
<feGaussianBlur in="BackgroundImageFix" stdDeviation="50"/>
<feComposite in2="SourceAlpha" operator="in" result="effect1_backgroundBlur_895_551"/>
<feColorMatrix in="SourceAlpha" type="matrix" values="0 0 0 0 0 0 0 0 0 0 0 0 0 0 0 0 0 0 127 0" result="hardAlpha"/>
<feOffset dy="40"/>
<feGaussianBlur stdDeviation="40"/>
<feComposite in2="hardAlpha" operator="out"/>
<feColorMatrix type="matrix" values="0 0 0 0 0 0 0 0 0 0 0 0 0 0 0 0 0 0 0.28 0"/>
<feBlend mode="normal" in2="effect1_backgroundBlur_895_551" result="effect2_dropShadow_895_551"/>
<feColorMatrix in="SourceAlpha" type="matrix" values="0 0 0 0 0 0 0 0 0 0 0 0 0 0 0 0 0 0 127 0" result="hardAlpha"/>
<feOffset dy="8"/>
<feGaussianBlur stdDeviation="6"/>
<feComposite in2="hardAlpha" operator="out"/>
<feColorMatrix type="matrix" values="0 0 0 0 0 0 0 0 0 0 0 0 0 0 0 0 0 0 0.08 0"/>
<feBlend mode="normal" in2="effect2_dropShadow_895_551" result="effect3_dropShadow_895_551"/>
<feBlend mode="normal" in="SourceGraphic" in2="effect3_dropShadow_895_551" result="shape"/>
</filter>
<linearGradient id="paint0_linear_895_551" x1="259.704" y1="40" x2="335.999" y2="213.086" gradientUnits="userSpaceOnUse">
<stop stop-color="white" stop-opacity="0.48"/>
<stop offset="0.405687" stop-color="white" stop-opacity="0.01"/>
<stop offset="0.574372" stop-color="white" stop-opacity="0.01"/>
<stop offset="1" stop-color="white" stop-opacity="0.12"/>
</linearGradient>
<linearGradient id="paint1_linear_895_551" x1="259.704" y1="209.738" x2="335.999" y2="382.824" gradientUnits="userSpaceOnUse">
<stop stop-color="white" stop-opacity="0.48"/>
<stop offset="0.405687" stop-color="white" stop-opacity="0.01"/>
<stop offset="0.574372" stop-color="white" stop-opacity="0.01"/>
<stop offset="1" stop-color="white" stop-opacity="0.12"/>
</linearGradient>
<linearGradient id="paint2_linear_895_551" x1="90.9455" y1="40" x2="167.241" y2="213.086" gradientUnits="userSpaceOnUse">
<stop stop-color="white" stop-opacity="0.48"/>
<stop offset="0.405687" stop-color="white" stop-opacity="0.01"/>
<stop offset="0.574372" stop-color="white" stop-opacity="0.01"/>
<stop offset="1" stop-color="white" stop-opacity="0.12"/>
</linearGradient>
<linearGradient id="paint3_linear_895_551" x1="90.9455" y1="209.738" x2="167.254" y2="382.836" gradientUnits="userSpaceOnUse">
<stop stop-color="white" stop-opacity="0.48"/>
<stop offset="0.405687" stop-color="white" stop-opacity="0.01"/>
<stop offset="0.574372" stop-color="white" stop-opacity="0.01"/>
<stop offset="1" stop-color="white" stop-opacity="0.12"/>
</linearGradient>
</defs>
</svg>
